<svg id="b56c4288-8f0c-4920-a04d-9745ea8304e7" data-name="Layer 1" xmlns="http://www.w3.org/2000/svg" width="865.76" height="682.89" viewBox="0 0 865.76 682.89"><path d="M592.4,133.21a121,121,0,0,1,22.78,71c0,23.84-5,47.49-16.9,66.25l52.34,33.83c18.44-28.59,27-63.53,27-100.08A183.37,183.37,0,0,0,642.26,95.9Z" fill="#a7a9ac"/><rect x="619.47" y="503.74" width="122.52" height="50.99" fill="#a7a9ac"/><path d="M27.59,550.78S24.84,504,91,497.52c0,0,82.66,1.83,104.7-97.35,0,0,22.35-91.88,83.55-82.32a34.73,34.73,0,0,1,18.11,8.75c5.76,5.28,14.39,14.43,25.07,29.49,0,0,40.41,63.36,94.6,26.63,0,0,24.79-18.37,40.41-35.82V550.78Z" fill="#ccc"/><rect x="70.88" y="546.01" width="1.59" height="4.77" fill="#3a0548"/><path d="M72.47,536.22H70.88v-9.79h1.59Zm0-19.57H70.88v-9.79h1.59Zm0-19.58H70.88v-9.79h1.59Z" fill="#3a0548"/><rect x="70.88" y="472.72" width="1.59" height="4.77" fill="#3a0548"/><rect x="136.09" y="546.01" width="1.59" height="4.77" fill="#3a0548"/><path d="M137.68,536.26h-1.59v-9.75h1.59Zm0-19.5h-1.59V507h1.59Zm0-19.51h-1.59V487.5h1.59Zm0-19.5h-1.59V468h1.59Zm0-19.51h-1.59v-9.75h1.59Z" fill="#3a0548"/><rect x="136.09" y="433.97" width="1.59" height="4.77" fill="#3a0548"/><rect x="200.37" y="546.01" width="1.59" height="4.77" fill="#3a0548"/><path d="M202,536.84h-1.59v-9.16H202Zm0-18.33h-1.59v-9.17H202Zm0-18.34h-1.59V491H202Zm0-18.34h-1.59v-9.16H202Zm0-18.33h-1.59v-9.17H202Zm0-18.34h-1.59V436H202Zm0-18.34h-1.59v-9.16H202Zm0-18.33h-1.59v-9.17H202Zm0-18.34h-1.59V381H202Zm0-18.33h-1.59v-9.17H202Zm0-18.34h-1.59v-9.17H202Z" fill="#3a0548"/><rect x="200.37" y="330.37" width="1.59" height="4.77" fill="#3a0548"/><rect x="265.58" y="546.01" width="1.59" height="4.77" fill="#3a0548"/><path d="M267.17,536.47h-1.59v-9.55h1.59Zm0-19.09h-1.59v-9.55h1.59Zm0-19.09h-1.59v-9.55h1.59Zm0-19.09h-1.59v-9.55h1.59Zm0-19.09h-1.59v-9.55h1.59Zm0-19.09h-1.59v-9.54h1.59Zm0-19.09h-1.59v-9.54h1.59Zm0-19.09h-1.59V393.3h1.59Zm0-19.09h-1.59v-9.54h1.59Zm0-19.09h-1.59v-9.54h1.59Zm0-19.09h-1.59V336h1.59Zm0-19.09h-1.59v-9.54h1.59Zm0-19.09h-1.59v-9.54h1.59Z" fill="#3a0548"/><rect x="265.58" y="283.53" width="1.59" height="4.77" fill="#3a0548"/><rect x="328.95" y="546.01" width="1.59" height="4.77" fill="#3a0548"/><path d="M330.54,536.45H329v-9.56h1.59Zm0-19.12H329v-9.56h1.59Zm0-19.12H329v-9.56h1.59Zm0-19.12H329v-9.56h1.59Zm0-19.12H329v-9.56h1.59Zm0-19.12H329v-9.56h1.59Zm0-19.12H329v-9.56h1.59Zm0-19.12H329v-9.56h1.59Zm0-19.12H329v-9.56h1.59Zm0-19.12H329v-9.56h1.59Z" fill="#3a0548"/><rect x="328.95" y="340.47" width="1.59" height="4.77" fill="#3a0548"/><line x1="394.03" y1="550.78" x2="394.03" y2="373.54" fill="none" stroke="#ed1c24" stroke-miterlimit="10"/><path d="M68.78,438.61v19.57H63.51V443.05h-2.9v-4.44Z" fill="#3a0548"/><path d="M71.94,448.42c0-6.27,3.35-10.28,8.57-10.28s8.57,4,8.57,10.28-3.37,10.28-8.57,10.28S71.94,454.67,71.94,448.42Zm11.77,0c0-3.61-1.15-5.63-3.2-5.63s-3.2,2-3.2,5.61,1.14,5.62,3.2,5.62S83.71,452,83.71,448.44Z" fill="#3a0548"/><path d="M135.46,414.62v4.65H120.9v-1.2c7.88-9.28,9-10.78,9-12.46a1.66,1.66,0,0,0-1.7-1.78,1.71,1.71,0,0,0-1.77,1.92v.38h-5.17v-.36c0-4,2.59-6.57,6.87-6.57s7,2.55,7,6.22c0,2.46-.91,4.36-5.09,9.2Z" fill="#3a0548"/><path d="M137.85,409.5c0-6.27,3.35-10.27,8.56-10.27s8.57,4,8.57,10.27-3.36,10.28-8.57,10.28S137.85,415.75,137.85,409.5Zm11.77,0c0-3.6-1.16-5.63-3.21-5.63s-3.2,2-3.2,5.61,1.14,5.62,3.2,5.62S149.62,413.13,149.62,409.52Z" fill="#3a0548"/><path d="M193.62,302.68c4.39,0,7.4,2.68,7.4,6.52S198,316,193.7,316s-7.27-2.81-7.27-6.78h5a2.24,2.24,0,1,0,4.48,0,2.28,2.28,0,0,0-2.42-2.36h-6.09l-.5-.65L188,296h11.61v4.46h-7.57l-.25,2.23Z" fill="#3a0548"/><path d="M203.12,305.8c0-6.27,3.35-10.28,8.57-10.28s8.56,4,8.56,10.28-3.36,10.27-8.56,10.27S203.12,312.05,203.12,305.8Zm11.77,0c0-3.6-1.16-5.63-3.2-5.63s-3.2,2-3.2,5.62,1.13,5.61,3.2,5.61S214.89,309.42,214.89,305.81Z" fill="#3a0548"/><path d="M265.36,265.6c0,4.29-3.16,7.25-7.76,7.25s-7.79-3-7.79-7.22c0-2,.6-4,2.24-6.74l3.6-6.07h5.65l-3.88,6.47a9.11,9.11,0,0,1,1.29-.09C262.63,259.2,265.36,261.82,265.36,265.6Zm-5,0a2.74,2.74,0,1,0-2.73,2.75A2.63,2.63,0,0,0,260.32,265.6Z" fill="#3a0548"/><path d="M274.12,259.52c4.38,0,7.39,2.68,7.39,6.52s-3,6.81-7.31,6.81-7.27-2.81-7.27-6.78h5a2.18,2.18,0,0,0,2.25,2.28,2.2,2.2,0,0,0,2.22-2.31,2.28,2.28,0,0,0-2.42-2.37h-6.09l-.5-.64,1.1-10.21h11.6v4.46h-7.57l-.24,2.24Z" fill="#3a0548"/><path d="M334,326.06h-1.77v3.52h-5v-3.52h-9.4v-1L324.06,310h5.2l-4.85,11.66h3.13l1.15-4.31h3.52v4.31H334Z" fill="#3a0548"/><path d="M342.88,316.7c4.39,0,7.4,2.68,7.4,6.52s-3,6.81-7.32,6.81-7.27-2.81-7.27-6.78h5a2.18,2.18,0,0,0,2.25,2.28,2.21,2.21,0,0,0,2.23-2.31,2.28,2.28,0,0,0-2.42-2.37h-6.09l-.5-.64,1.09-10.2h11.61v4.46h-7.57l-.25,2.23Z" fill="#3a0548"/><text transform="translate(380.26 360.31)" font-size="29.43" font-family="Mont-HeavyDEMO, Mont" font-weight="800">30</text><rect x="32.6" y="255.65" width="91.01" height="91.01" fill="#bcbec0"/><path d="M77,330.24a28.43,28.43,0,1,1,28.43-28.42A28.45,28.45,0,0,1,77,330.24ZM77,275a26.84,26.84,0,1,0,26.84,26.84A26.87,26.87,0,0,0,77,275Z" fill="#fff"/><polygon points="93.72 323.83 76.21 302.1 76.21 274.19 77.8 274.19 77.8 301.54 94.96 322.83 93.72 323.83" fill="#fff"/><rect x="75.32" y="294.41" width="27.64" height="1.59" transform="translate(-130.41 78.66) rotate(-28.59)" fill="#fff"/><rect x="585.48" y="413.09" width="186.25" height="100.56" rx="5.34" fill="#ccc"/><circle cx="604.53" cy="446.34" r="7.35" fill="#fff"/><circle cx="604.53" cy="478.15" r="7.35" fill="#fff"/><rect x="622.01" y="438.19" width="40.9" height="1.59" fill="#fff"/><rect x="622.01" y="451.15" width="40.9" height="1.59" fill="#fff"/><rect x="622.01" y="474.09" width="40.9" height="1.59" fill="#fff"/><rect x="622.01" y="487.06" width="40.9" height="1.59" fill="#fff"/><circle cx="691.33" cy="446.29" r="7.35" fill="#fff"/><circle cx="691.33" cy="478.1" r="7.35" fill="#fff"/><rect x="708.81" y="438.14" width="40.9" height="1.59" fill="#fff"/><rect x="708.81" y="451.1" width="40.9" height="1.59" fill="#fff"/><rect x="708.81" y="474.05" width="40.9" height="1.59" fill="#fff"/><rect x="708.81" y="487.01" width="40.9" height="1.59" fill="#fff"/><rect x="639.34" y="119.48" width="198.85" height="118.08" rx="4.69" fill="#ccc"/><rect x="655.41" y="181.2" width="8.86" height="37.15" rx="4.43" fill="#bcbec0"/><rect x="677.57" y="165.18" width="8.86" height="53.17" rx="4.43" fill="#a7a9ac"/><rect x="700.75" y="153.93" width="8.86" height="64.42" rx="4.43" fill="#bcbec0"/><rect x="723.24" y="134.16" width="8.86" height="84.19" rx="4.43" fill="#a7a9ac"/><rect x="745.74" y="161.21" width="8.86" height="57.14" rx="4.43" fill="#bcbec0"/><rect x="769.6" y="170.63" width="8.86" height="47.72" rx="4.43" fill="#a7a9ac"/><rect x="792.78" y="184.27" width="8.86" height="34.08" rx="4.43" fill="#bcbec0"/><rect x="815.27" y="159.39" width="8.86" height="58.97" rx="4.43" fill="#a7a9ac"/><rect x="648.6" y="136.55" width="41.92" height="5.45" rx="2.73" fill="#a7a9ac"/><rect x="648.6" y="148.48" width="41.92" height="5.45" rx="2.73" fill="#a7a9ac"/><rect x="786.3" y="134.16" width="37.83" height="19.77" rx="5.57" fill="#a7a9ac"/><path d="M388.25,263.31A121.45,121.45,0,0,1,494.81,83.67l.57-61.81A183.29,183.29,0,0,0,333.79,291.53Z" fill="#bcbec0"/><path d="M599,269.33a121.71,121.71,0,0,1-211-6.87l-54.31,29.3a183.94,183.94,0,0,0,317.68,11.38Z" fill="#ccc"/><rect x="410" y="139.28" width="34.77" height="60.5" rx="5.14" fill="#d1d3d4"/><rect x="546.17" y="139.28" width="34.77" height="60.5" rx="5.14" fill="#3a0548"/><rect x="460.45" y="143.25" width="68.17" height="1.59" fill="#d1d3d4"/><rect x="461.3" y="155.64" width="68.17" height="1.59" fill="#d1d3d4"/><rect x="460.19" y="168.04" width="68.17" height="1.59" fill="#d1d3d4"/><rect x="460.19" y="180.4" width="68.17" height="1.59" fill="#d1d3d4"/><rect x="460.19" y="192.77" width="68.17" height="1.59" fill="#d1d3d4"/><rect x="407.28" y="217.56" width="68.17" height="1.59" fill="#3a0548"/><rect x="407.28" y="232.55" width="68.17" height="1.59" fill="#3a0548"/><rect x="407.28" y="244.37" width="68.17" height="1.59" fill="#3a0548"/><rect x="492.6" y="216.08" width="88.34" height="61.35" rx="2.54" fill="#3a0548"/><path d="M642.26,95.9a183,183,0,0,0-147.16-74l-.57,61.81a121.25,121.25,0,0,1,98,49.69Z" fill="#d1d3d4"/><circle cx="344.3" cy="214.18" r="12.01" fill="#d1d3d4"/><circle cx="344.3" cy="213.92" r="4.43" fill="#bcbec0"/><path d="M443.74,630V661l63.95-.3c7-26.21-35.56-18.87-35.56-18.87l.7-11.9Z" fill="#0071f2"/><path d="M471.51,631.26c-.13.3-1.56-.13-3.31,0s-3.11.75-3.29.47,1.14-1.47,3.21-1.59S471.66,631,471.51,631.26Z" fill="#263238"/><polygon points="413.89 630.1 413.89 640.13 413.17 658.17 389.18 658.74 388.34 640.13 389.03 628.79 413.89 630.1" fill="#0071f2"/><path d="M470,398.35l-3.86-5.16-89.57,4.21s-1.73,27.83-.48,38c.4,3.27,2.24,15.93,2.24,15.93l2.21,98.17c.86,7.78,2.95,89.72,2.95,89.72h35.5l7.24-131.35c.77-14.62.17-34.19.9-50.36l6,4.78,14.59,69.2s-1.78,24.79-4,42.71c-3.47,28.33-2.26,63.89-2.26,63.89l36.44.59s2.08-33.87,6-61l6.11-48.4c0-5.43-2.24-18.49-2.95-27.39Z" fill="#3a0548"/><path d="M433.09,462.16c-3.37-2.17-6.15-5.11-9.66-7.14a95.7,95.7,0,0,1-9.19-7.76,92.33,92.33,0,0,1,9.66,7.15A93.22,93.22,0,0,1,433.09,462.16Z" opacity="0.21"/><path d="M497.14,310.44A78.46,78.46,0,0,1,495,302.3c-.1-1.59,0-8.1,0-8.1s3.91-8.63,5.23-9.24a10,10,0,0,1,2.45-.8l3.59-14.22s1.16-2.95,3.09-2.4S511,270,511,271s-1.68,12.35-1.68,12.35l.14.65s3.11-1.35,4.28,0a8.71,8.71,0,0,1,1.56,3.58,3.08,3.08,0,0,1,2.94,1.89l.94,2a3.77,3.77,0,0,1,3.49,1.47c1.18,1.85-.29,8-.29,8s-4.35,9.27-5.69,10.67a65.22,65.22,0,0,0-4,5.17Z" fill="#f9b499"/><path d="M503.39,281.08a10.89,10.89,0,0,1-.5,2.71,28.72,28.72,0,0,1-2.18,6.33,39.62,39.62,0,0,0-3.24,5.75,11.34,11.34,0,0,0-.47,2.65,4.06,4.06,0,0,1,0-2.79,28.82,28.82,0,0,1,3.1-5.89,40.56,40.56,0,0,0,2.32-6.14A12.52,12.52,0,0,1,503.39,281.08Z" fill="#ff9a6c"/><path d="M509.34,283.6c.09,0,.22.27.17.71a5.2,5.2,0,0,1-.48,1.6c-.53,1.18-1.11,2-1.25,2s.13-1.09.66-2.22c.25-.56.49-1.06.63-1.47S509.25,283.62,509.34,283.6Z" fill="#ff9a6c"/><path d="M515,287.3c.18,0,.3.75.15,1.63s-.5,1.47-.66,1.47-.12-.76,0-1.6S514.89,287.3,515,287.3Z" fill="#ff9a6c"/><path d="M519.1,291c.16,0,.57.8.38,1.9s-.88,1.77-1,1.65.21-.82.36-1.76S518.92,291,519.1,291Z" fill="#ff9a6c"/><polygon points="496.6 309.19 491.24 327.58 509.6 339.07 513.95 312.8 506.97 306.63 496.6 309.19" fill="#f9b499"/><path d="M405.86,193.51l-.22,70.12,30.09,1.48.88-17.06s10.68,2.12,13.43-7.8c1.77-6.33,1.32-55.34,1.32-55.34Z" fill="#ffbf9d"/><path d="M455.33,189.82c-4.75,1.35-5.78,9.1-5.78,9.1l-7.36,16.41c-3.8-2.94-8.83-2.79-9.84,3.86-.69,4.8,5.29,5.78,5.29,5.78-3.49,5.89-5.89,10.72-10.91,16.35-5.49,6.1-8.56,6.7-14.51,6.81h-6.56s-3.21-10.43-9.15-36.49c-6.59-28.91,27.6-25.18,33.87-32.56C440.7,167.05,470.27,185.53,455.33,189.82Z" fill="#263238"/><path d="M397.07,214.38c-5.53-3.73-6-14.15-2.81-20.4a20.11,20.11,0,0,1,17.08-10.61,8.15,8.15,0,0,0,2.78-.31,7.81,7.81,0,0,0,2.95-2.84c5-6.44,9.82-12.77,19.05-12.77a10.48,10.48,0,0,1,5.81,1.47,9.21,9.21,0,0,1,3.49,4.61,20.39,20.39,0,0,1,5.4-1.94,6.69,6.69,0,0,1,5.42,1.32,4.1,4.1,0,0,1,.84,5.2,6.54,6.54,0,0,1,6.55,5.45c.49,3.08-3.92,5.24-4.42,5.49,0,0,2.42,5.07-3.35,8.1-2.33,1.22-5.35-.25-5.7-.43" fill="#3a0548"/><path d="M419,221.17a14.22,14.22,0,0,1-2.29,10.2c-.21-.1.75-2.25,1.38-5.05S418.81,221.17,419,221.17Z" fill="#455a64"/><path d="M422.68,217.68a12.63,12.63,0,0,1-.28,5.12,13,13,0,0,1-1.59,4.89,28.3,28.3,0,0,1,.84-5A26.32,26.32,0,0,1,422.68,217.68Z" fill="#455a64"/><path d="M433.11,206.1c0,.11-.79.72-1.88,2a19.2,19.2,0,0,0-3.23,5.6,45.75,45.75,0,0,0-1.8,6.3,10.27,10.27,0,0,1-.75,2.65,9.16,9.16,0,0,1,.22-2.76,30.66,30.66,0,0,1,1.62-6.47,16.07,16.07,0,0,1,3.55-5.69A5.75,5.75,0,0,1,433.11,206.1Z" fill="#455a64"/><path d="M437.32,198.22a4.17,4.17,0,0,1,.57,1.9,12.46,12.46,0,0,1-.25,4.79,12.88,12.88,0,0,1-2,4.34,4.75,4.75,0,0,1-1.47,1.48,26.78,26.78,0,0,0,2.69-5.89A26.74,26.74,0,0,0,437.32,198.22Z" fill="#455a64"/><path d="M401.4,215.73c-.1.19-1-.13-2.06-.7s-1.78-1.2-1.68-1.39,1,.13,2.06.72S401.5,215.56,401.4,215.73Z" fill="#455a64"/><path d="M415.94,208.25c.2,0,0,1.47-.86,3.05s-2.18,2.34-2.3,2.18.8-1.16,1.65-2.58S415.73,208.19,415.94,208.25Z" fill="#455a64"/><path d="M420.41,205.85a6,6,0,0,1-1.34,3.64c-1.21,1.84-2.72,2.81-2.84,2.65s1.07-1.36,2.21-3.06S420.19,205.78,420.41,205.85Z" fill="#455a64"/><path d="M442.63,176.48a16.91,16.91,0,0,0-1.66-1,11.07,11.07,0,0,0-5-1.3,13.46,13.46,0,0,0-7.36,2,18.25,18.25,0,0,0-6.3,7,31.17,31.17,0,0,0-2.56,6.58l-.12.44-.4-.22a15.1,15.1,0,0,0-6.71-1.7,15.63,15.63,0,0,0-5.47.82,23.44,23.44,0,0,0-4.42,2.22,4.47,4.47,0,0,1,1-.88,13.78,13.78,0,0,1,3.29-1.78,15.93,15.93,0,0,1,5.63-1,15.43,15.43,0,0,1,7.05,1.7l-.51.23a30.29,30.29,0,0,1,2.59-6.74,18.55,18.55,0,0,1,6.49-7.26,13.67,13.67,0,0,1,7.79-1.93,10.77,10.77,0,0,1,5.17,1.59,7.19,7.19,0,0,1,1.15.91C442.53,176.33,442.65,176.46,442.63,176.48Z" fill="#455a64"/><path d="M458.45,180.29a1.83,1.83,0,0,1,1.72.78,3,3,0,0,1,.69,2.21,3.36,3.36,0,0,1-1.79,2.55,5,5,0,0,1-3.66.5,10.49,10.49,0,0,1-3.77-1.83A37.36,37.36,0,0,0,448,182a15.07,15.07,0,0,0-4.41-1.56,18.65,18.65,0,0,0-9.08.62,25.24,25.24,0,0,0-6.71,3.4,67.88,67.88,0,0,0-5.35,4.54,8.1,8.1,0,0,1,1.2-1.48,28.12,28.12,0,0,1,3.84-3.47,23.89,23.89,0,0,1,6.8-3.65,18.77,18.77,0,0,1,9.43-.69,15.56,15.56,0,0,1,4.67,1.64,35.75,35.75,0,0,1,3.74,2.61,10.31,10.31,0,0,0,3.5,1.8,4.4,4.4,0,0,0,3.24-.36,2.93,2.93,0,0,0,1.59-2.09,2.61,2.61,0,0,0-2-2.94Z" opacity="0.2"/><path d="M381.48,361.2c-1.36,5.89-8.11,9.07-12.28,13.55s-10.31,8.14-16.2,6.41a14.34,14.34,0,0,1-8.41-8.13c-3.9-8.51-5.65-20.21-2.74-29.1s3.38-15.42,7.13-27.73l23.12,8.94,4.83-5.89S382.49,356.87,381.48,361.2Z" fill="#0071f2"/><path d="M457.87,310.5s13.64,51.45,25,58.42A19.57,19.57,0,0,0,493,372a18,18,0,0,0,17.49-14l3.12-40.93-17.14-7L495,316.7l-4-11.42Z" fill="#0071f2"/><path d="M468.71,347.92l-.13-33.34,28.21,6.95s-7.36-39.31-19.47-50.87c-8.83-8.35-41.58-16.2-41.58-16.2l-42.6,2s1.18.28-9.82,5.22c-10,4.49-22,10.46-26,20.73L348.49,318l19.71,7.18.66,1.61,3.08,43.81c-6,21.48,3.19,30.18,3.19,30.18s-.88,11.67,0,14.43c0,0,66.66,1.48,82.74,0,13.14-1.22,15.05-1.59,15.05-1.59a21.84,21.84,0,0,0-1-15.6Z" fill="#0071f2"/><path d="M391.71,260.07s-7.07-21.65-7.73-36.14a53.88,53.88,0,0,1,11.08-35.44,48.16,48.16,0,0,1,35.92-19c11.12-.76,14.17.33,17.81,6.8,13.12,23.4,14,43.88,9.17,59.22s-8.44,24.67-8.44,24.67Z" fill="#0071f2"/><g opacity="0.3"><path d="M393.36,224.83c12.95,7.48,28.61,10.41,43.53,9.5-23.91-10.93-29.35-9.69-43.53-9.5"/></g><g opacity="0.3"><path d="M371.75,368.06c-7.47-19.24-9.74-40.73-5.19-60.87Z"/></g><g opacity="0.3"><path d="M468.56,344.5c3.51-7.36,3.51-15.34,2.95-23.56a146.84,146.84,0,0,0-4.42-24.26Z"/></g><g opacity="0.3"><path d="M505.08,350.39a12.61,12.61,0,0,0,2.39-8.65,28,28,0,0,0-2.39-8.84,72,72,0,0,0-8.73-15.36c.07,6.16,3.78,11.58,5.89,17.35a45.58,45.58,0,0,1,2.62,15.61"/></g><g opacity="0.3"><path d="M457.87,400.81a80.6,80.6,0,0,1-27.56,4.69c-17.29-.48-34.89.54-51.54-3.92A531.45,531.45,0,0,0,457.87,400.81Z"/></g><g opacity="0.3"><path d="M459.07,386.09a53,53,0,0,1-51.73-25s15.25,12.51,28.08,17.67A157.21,157.21,0,0,0,459.07,386.09Z"/></g><path d="M89.08,173.33h261.2s2.42-96.43-72.89-68.88c0,0-4.13-44.31-41.79-55.22-20.49-5.94-42.55.89-56.73,16.83-7.08,8-15.31,19.36-23.89,35.63,0,0-14-14.87-26.9-9.34A15.78,15.78,0,0,0,118.93,105a30.54,30.54,0,0,0,2,15S81.68,111.8,89.08,173.33Z" fill="#bcbec0"/><rect x="196.58" y="79.38" width="39.49" height="2.39" fill="#fff"/><rect x="196.58" y="91.41" width="39.49" height="2.39" fill="#fff"/><rect x="196.58" y="103.44" width="39.49" height="2.39" fill="#fff"/><rect x="196.58" y="115.47" width="39.49" height="2.39" fill="#fff"/><rect x="215.53" y="134.16" width="1.59" height="4.77" fill="#d1d3d4"/><path d="M217.12,199.12h-1.59v-10h1.59Zm0-20.06h-1.59V169h1.59Zm0-20.06h-1.59V149h1.59Z" fill="#d1d3d4"/><polygon points="221.09 214.72 215.53 214.72 215.53 209.15 217.12 209.15 217.12 213.13 221.09 213.13 221.09 214.72" fill="#d1d3d4"/><path d="M315.53,214.72h-9.45v-1.59h9.45Zm-18.89,0H287.2v-1.59h9.44Zm-18.89,0h-9.44v-1.59h9.44Zm-18.88,0h-9.45v-1.59h9.45Zm-18.89,0h-9.44v-1.59H240Z" fill="#d1d3d4"/><rect x="324.97" y="213.13" width="4.77" height="1.59" fill="#d1d3d4"/></svg>